<svg xmlns="http://www.w3.org/2000/svg" xmlns:xlink="http://www.w3.org/1999/xlink" width="500" zoomAndPan="magnify" viewBox="0 0 375 374.999991" height="500" preserveAspectRatio="xMidYMid meet" version="1.2"><defs><clipPath id="955fe97e85"><path d="M 12.832031 78.960938 L 362.976562 78.960938 L 362.976562 308.210938 L 12.832031 308.210938 Z M 12.832031 78.960938 "/></clipPath><clipPath id="8b27390ee4"><path d="M 211.175781 78.960938 C 215.007812 78.960938 218.863281 78.960938 222.6875 78.960938 C 253.175781 82.789062 272.230469 95.535156 280.910156 116.390625 C 331.738281 113.609375 368.695312 153.046875 346.171875 191.75 C 353.664062 199.882812 359.910156 208.980469 362.167969 221.191406 C 362.167969 224.6875 362.167969 228.179688 362.167969 231.675781 C 355.441406 262.75 326.507812 283.75 279 278.097656 C 266.777344 294.054688 245.027344 310.035156 211.183594 308.042969 C 193.691406 306.996094 181.519531 300.929688 170.867188 293.558594 C 159.644531 299.683594 147.488281 304.492188 129.925781 304.546875 C 89.296875 304.636719 62.117188 281.03125 61.457031 248.648438 C 35.339844 241.074219 17.648438 226.933594 12.832031 202.738281 C 12.832031 199.242188 12.832031 195.738281 12.832031 192.253906 C 18.148438 168.277344 34.878906 153.21875 62.730469 146.835938 C 61.058594 106.390625 116.773438 81.117188 162.542969 98.933594 C 173.441406 90.125 188.859375 80.515625 211.175781 78.960938 Z M 211.175781 78.960938 "/></clipPath><clipPath id="3ff66eb720"><path d="M 12.832031 78.960938 L 362.15625 78.960938 L 362.15625 308.203125 L 12.832031 308.203125 Z M 12.832031 78.960938 "/></clipPath><clipPath id="723d2f0d87"><path d="M 211.171875 78.960938 C 215.003906 78.960938 218.855469 78.960938 222.679688 78.960938 C 253.167969 82.789062 272.222656 95.535156 280.898438 116.390625 C 331.726562 113.609375 368.683594 153.042969 346.160156 191.746094 C 353.652344 199.878906 359.898438 208.976562 362.15625 221.183594 C 362.15625 224.683594 362.15625 228.171875 362.15625 231.667969 C 355.429688 262.746094 326.496094 283.742188 278.992188 278.089844 C 266.769531 294.046875 245.019531 310.023438 211.179688 308.035156 C 193.683594 306.988281 181.515625 300.917969 170.859375 293.546875 C 159.636719 299.675781 147.484375 304.484375 129.921875 304.539062 C 89.296875 304.628906 62.117188 281.023438 61.457031 248.644531 C 35.339844 241.066406 17.648438 226.929688 12.832031 202.734375 C 12.832031 199.238281 12.832031 195.734375 12.832031 192.25 C 18.148438 168.277344 34.878906 153.214844 62.730469 146.832031 C 61.058594 106.386719 116.769531 81.117188 162.539062 98.933594 C 173.4375 90.125 188.855469 80.511719 211.171875 78.960938 Z M 211.171875 78.960938 "/></clipPath></defs><g id="cb9daf6b50"><rect x="0" width="375" y="0" height="374.999991" style="fill:#ffffff;fill-opacity:1;stroke:none;"/><rect x="0" width="375" y="0" height="374.999991" style="fill:#ffffff;fill-opacity:1;stroke:none;"/><g clip-rule="nonzero" clip-path="url(#955fe97e85)"><g clip-rule="nonzero" clip-path="url(#8b27390ee4)"><path style=" stroke:none;fill-rule:nonzero;fill:#ffffff;fill-opacity:1;" d="M 12.832031 78.960938 L 362.082031 78.960938 L 362.082031 308.210938 L 12.832031 308.210938 Z M 12.832031 78.960938 "/></g></g><g clip-rule="nonzero" clip-path="url(#3ff66eb720)"><g clip-rule="nonzero" clip-path="url(#723d2f0d87)"><path style="fill:none;stroke-width:26;stroke-linecap:butt;stroke-linejoin:miter;stroke:#000000;stroke-opacity:1;stroke-miterlimit:4;" d="M 264.450661 -0.000119087 C 269.560036 -0.000119087 274.695453 -0.000119087 279.794411 -0.000119087 C 320.445453 5.104048 345.851703 22.098839 357.424619 49.906131 C 425.190245 46.197798 474.466286 98.775923 444.435036 150.380089 C 454.42462 161.22384 462.752745 173.354048 465.763161 189.63009 C 465.763161 194.296756 465.763161 198.947798 465.763161 203.609256 C 456.794411 245.046756 418.216286 273.041548 354.877744 265.50509 C 338.580869 286.781131 309.580869 308.083215 264.461078 305.432173 C 241.132953 304.03634 224.908994 295.94259 210.700661 286.114465 C 195.737119 294.28634 179.533994 300.697798 156.117327 300.770715 C 101.950661 300.890506 65.711077 269.416548 64.830869 226.244673 C 30.007952 216.140506 6.419411 197.291548 -0.00246444 165.031131 C -0.00246444 160.369673 -0.00246444 155.697798 -0.00246444 151.051964 C 7.086077 119.088423 29.393369 99.005089 66.528786 90.494673 C 64.299619 36.567589 138.580869 2.874881 199.606911 26.630089 C 214.138161 14.885298 234.695453 2.067589 264.450661 -0.000119087 Z M 264.450661 -0.000119087 " transform="matrix(0.75,0,0,0.75,12.83388,78.961027)"/></g></g><g style="fill:#000000;fill-opacity:1;"><g transform="translate(56.183349, 219.406689)"><path style="stroke:none" d="M 45.15625 -63.15625 C 52.945312 -63.15625 59.035156 -61.3125 63.421875 -57.625 C 67.816406 -53.945312 70.015625 -48.648438 70.015625 -41.734375 C 70.015625 -38.453125 69.519531 -34.925781 68.53125 -31.15625 C 66.675781 -24.226562 63.800781 -18.351562 59.90625 -13.53125 C 56.007812 -8.71875 51.367188 -5.070312 45.984375 -2.59375 C 40.609375 -0.125 34.769531 1.109375 28.46875 1.109375 C 20.738281 1.109375 14.675781 -0.726562 10.28125 -4.40625 C 5.894531 -8.082031 3.703125 -13.382812 3.703125 -20.3125 C 3.703125 -23.457031 4.226562 -27.070312 5.28125 -31.15625 C 7.070312 -38.019531 9.898438 -43.847656 13.765625 -48.640625 C 17.628906 -53.429688 22.234375 -57.046875 27.578125 -59.484375 C 32.929688 -61.929688 38.789062 -63.15625 45.15625 -63.15625 Z M 43.5 -54.0625 C 41.632812 -54.0625 39.960938 -53.316406 38.484375 -51.828125 C 37.003906 -50.347656 35.535156 -47.921875 34.078125 -44.546875 C 32.628906 -41.179688 31.066406 -36.503906 29.390625 -30.515625 C 26.921875 -21.859375 25.6875 -15.890625 25.6875 -12.609375 C 25.6875 -10.691406 26.023438 -9.300781 26.703125 -8.4375 C 27.390625 -7.570312 28.472656 -7.140625 29.953125 -7.140625 C 31.804688 -7.140625 33.472656 -7.894531 34.953125 -9.40625 C 36.441406 -10.925781 37.894531 -13.351562 39.3125 -16.6875 C 40.738281 -20.03125 42.316406 -24.640625 44.046875 -30.515625 C 46.460938 -39.046875 47.671875 -45.039062 47.671875 -48.5 C 47.671875 -50.476562 47.328125 -51.898438 46.640625 -52.765625 C 45.960938 -53.628906 44.914062 -54.0625 43.5 -54.0625 Z M 43.5 -54.0625 "/></g></g><g style="fill:#000000;fill-opacity:1;"><g transform="translate(126.098384, 219.406689)"><path style="stroke:none" d="M 88.1875 -12.796875 C 88.0625 -12.546875 88 -12.175781 88 -11.6875 C 88 -11.25 88.109375 -10.90625 88.328125 -10.65625 C 88.546875 -10.414062 88.835938 -10.296875 89.203125 -10.296875 C 89.953125 -10.296875 90.585938 -10.617188 91.109375 -11.265625 C 91.640625 -11.910156 91.992188 -12.234375 92.171875 -12.234375 C 92.484375 -12.234375 92.734375 -12.03125 92.921875 -11.625 C 93.109375 -11.226562 93.203125 -10.753906 93.203125 -10.203125 C 93.265625 -8.410156 92.675781 -6.660156 91.4375 -4.953125 C 90.195312 -3.253906 88.382812 -1.863281 86 -0.78125 C 83.625 0.289062 80.769531 0.828125 77.4375 0.828125 C 73.351562 0.828125 70.101562 -0.113281 67.6875 -2 C 65.28125 -3.882812 64.046875 -6.398438 63.984375 -9.546875 C 63.984375 -11.835938 64.539062 -14.40625 65.65625 -17.25 L 70.75 -30.609375 C 71.0625 -31.410156 71.21875 -32.054688 71.21875 -32.546875 C 71.21875 -33.347656 70.953125 -33.976562 70.421875 -34.4375 C 69.898438 -34.90625 69.269531 -35.140625 68.53125 -35.140625 C 67.476562 -35.140625 66.394531 -34.675781 65.28125 -33.75 C 64.164062 -32.820312 63.175781 -31.367188 62.3125 -29.390625 L 57.21875 -12.796875 C 57.09375 -12.546875 57.03125 -12.175781 57.03125 -11.6875 C 57.03125 -11.25 57.140625 -10.90625 57.359375 -10.65625 C 57.578125 -10.414062 57.867188 -10.296875 58.234375 -10.296875 C 58.972656 -10.296875 59.601562 -10.617188 60.125 -11.265625 C 60.65625 -11.910156 61.015625 -12.234375 61.203125 -12.234375 C 61.515625 -12.234375 61.757812 -12.03125 61.9375 -11.625 C 62.125 -11.226562 62.21875 -10.753906 62.21875 -10.203125 C 62.28125 -8.410156 61.691406 -6.660156 60.453125 -4.953125 C 59.222656 -3.253906 57.414062 -1.863281 55.03125 -0.78125 C 52.65625 0.289062 49.796875 0.828125 46.453125 0.828125 C 42.378906 0.828125 39.132812 -0.113281 36.71875 -2 C 34.3125 -3.882812 33.078125 -6.398438 33.015625 -9.546875 C 33.015625 -11.835938 33.570312 -14.40625 34.6875 -17.25 L 39.78125 -30.609375 C 40.09375 -31.410156 40.25 -32.054688 40.25 -32.546875 C 40.25 -33.347656 39.984375 -33.976562 39.453125 -34.4375 C 38.929688 -34.90625 38.300781 -35.140625 37.5625 -35.140625 C 36.507812 -35.140625 35.425781 -34.691406 34.3125 -33.796875 C 33.195312 -32.898438 32.269531 -31.460938 31.53125 -29.484375 L 25.40625 -9.640625 C 25.15625 -8.960938 25.03125 -8.316406 25.03125 -7.703125 C 25.03125 -6.953125 25.1875 -6.34375 25.5 -5.875 C 25.8125 -5.414062 26.242188 -4.941406 26.796875 -4.453125 C 27.234375 -4.078125 27.539062 -3.734375 27.71875 -3.421875 C 27.90625 -3.117188 27.9375 -2.75 27.8125 -2.3125 C 27.570312 -1.507812 26.988281 -0.921875 26.0625 -0.546875 C 25.132812 -0.179688 23.679688 0 21.703125 0 L 0.5625 0 C -1.050781 0 -2.210938 -0.257812 -2.921875 -0.78125 C -3.628906 -1.3125 -3.890625 -2.007812 -3.703125 -2.875 C -3.460938 -3.613281 -2.816406 -4.265625 -1.765625 -4.828125 C -0.835938 -5.316406 -0.0664062 -5.898438 0.546875 -6.578125 C 1.171875 -7.265625 1.703125 -8.347656 2.140625 -9.828125 L 10.390625 -36.625 C 10.515625 -36.9375 10.578125 -37.367188 10.578125 -37.921875 C 10.578125 -38.609375 10.4375 -39.132812 10.15625 -39.5 C 9.875 -39.875 9.425781 -40.335938 8.8125 -40.890625 C 8.1875 -41.390625 7.75 -41.820312 7.5 -42.1875 C 7.257812 -42.5625 7.234375 -43.054688 7.421875 -43.671875 C 7.785156 -45.097656 9.726562 -46.351562 13.25 -47.4375 C 16.78125 -48.519531 20.460938 -49.0625 24.296875 -49.0625 C 27.328125 -49.0625 29.722656 -48.222656 31.484375 -46.546875 C 33.242188 -44.878906 34.09375 -42.59375 34.03125 -39.6875 C 36.5625 -43.207031 39.234375 -45.648438 42.046875 -47.015625 C 44.867188 -48.378906 47.914062 -49.0625 51.1875 -49.0625 C 54.769531 -49.0625 57.691406 -48.023438 59.953125 -45.953125 C 62.210938 -43.878906 63.460938 -41.171875 63.703125 -37.828125 C 66.367188 -42.035156 69.210938 -44.957031 72.234375 -46.59375 C 75.265625 -48.238281 78.570312 -49.0625 82.15625 -49.0625 C 85.925781 -49.0625 88.972656 -47.914062 91.296875 -45.625 C 93.617188 -43.332031 94.78125 -40.363281 94.78125 -36.71875 C 94.78125 -34.800781 94.46875 -32.914062 93.84375 -31.0625 Z M 88.1875 -12.796875 "/></g></g><g style="fill:#000000;fill-opacity:1;"><g transform="translate(225.221809, 219.406689)"><path style="stroke:none" d=""/></g></g><g style="fill:#000000;fill-opacity:1;"><g transform="translate(245.714385, 219.406689)"><path style="stroke:none" d="M 56.65625 -49.234375 C 57.832031 -53.503906 59.488281 -56.71875 61.625 -58.875 C 63.757812 -61.039062 66.710938 -62.125 70.484375 -62.125 C 73.441406 -62.125 75.816406 -61.179688 77.609375 -59.296875 C 79.410156 -57.410156 80.3125 -55.078125 80.3125 -52.296875 C 80.3125 -51.367188 80.15625 -50.289062 79.84375 -49.0625 C 79.164062 -46.332031 77.957031 -44.363281 76.21875 -43.15625 C 74.488281 -41.957031 72.609375 -41.359375 70.578125 -41.359375 C 69.523438 -41.359375 68.578125 -41.4375 67.734375 -41.59375 C 66.898438 -41.75 66.113281 -41.945312 65.375 -42.1875 L 59.90625 -22.078125 C 57.925781 -14.710938 54.617188 -9.097656 49.984375 -5.234375 C 45.347656 -1.367188 39.039062 0.5625 31.0625 0.5625 C 23.769531 0.5625 18.097656 -0.828125 14.046875 -3.609375 C 9.992188 -6.398438 7.96875 -10.726562 7.96875 -16.59375 C 7.96875 -19.4375 8.460938 -22.5625 9.453125 -25.96875 L 16.5 -50.90625 C 16.75 -51.707031 16.875 -52.484375 16.875 -53.234375 C 16.875 -53.972656 16.765625 -54.570312 16.546875 -55.03125 C 16.335938 -55.5 16.046875 -56.039062 15.671875 -56.65625 C 15.117188 -57.457031 14.84375 -58.109375 14.84375 -58.609375 C 14.84375 -58.859375 14.898438 -59.164062 15.015625 -59.53125 C 15.265625 -60.332031 15.820312 -60.90625 16.6875 -61.25 C 17.550781 -61.59375 18.820312 -61.765625 20.5 -61.765625 L 42.28125 -61.765625 C 44.945312 -61.765625 46.28125 -60.957031 46.28125 -59.34375 C 46.28125 -58.976562 46.25 -58.671875 46.1875 -58.421875 C 46 -57.867188 45.734375 -57.421875 45.390625 -57.078125 C 45.054688 -56.734375 44.546875 -56.347656 43.859375 -55.921875 C 42.867188 -55.359375 42.066406 -54.738281 41.453125 -54.0625 C 40.835938 -53.382812 40.3125 -52.332031 39.875 -50.90625 L 31.8125 -22.53125 C 31.25 -20.425781 30.96875 -18.632812 30.96875 -17.15625 C 30.96875 -13.007812 33.195312 -10.9375 37.65625 -10.9375 C 40.375 -10.9375 42.644531 -11.816406 44.46875 -13.578125 C 46.289062 -15.347656 47.820312 -18.363281 49.0625 -22.625 Z M 56.65625 -49.234375 "/></g></g></g></svg>